<mxfile host="app.diagrams.net" modified="2023-01-01T05:32:25.224Z" agent="5.0 (Macintosh; Intel Mac OS X 10_15_7) AppleWebKit/537.36 (KHTML, like Gecko) Chrome/104.0.5112.87 Whale/3.16.138.22 Safari/537.36" etag="JmkpgC--byCIv-ODRVyK" version="20.7.4" type="github">
  <diagram id="yBroxvktmbOIuQ4lVF_v" name="페이지-1">
    <mxGraphModel dx="538" dy="1011" grid="1" gridSize="10" guides="1" tooltips="1" connect="1" arrows="1" fold="1" page="1" pageScale="1" pageWidth="827" pageHeight="1169" math="0" shadow="0">
      <root>
        <mxCell id="0" />
        <mxCell id="1" parent="0" />
        <mxCell id="njsngqaN4NBIr93hJb6f-5" style="edgeStyle=orthogonalEdgeStyle;rounded=0;orthogonalLoop=1;jettySize=auto;html=1;exitX=0.5;exitY=1;exitDx=0;exitDy=0;entryX=0.5;entryY=0;entryDx=0;entryDy=0;fontSize=18;strokeWidth=3;" parent="1" source="njsngqaN4NBIr93hJb6f-1" target="njsngqaN4NBIr93hJb6f-2" edge="1">
          <mxGeometry relative="1" as="geometry" />
        </mxCell>
        <mxCell id="njsngqaN4NBIr93hJb6f-1" value="&lt;font style=&quot;font-size: 18px;&quot;&gt;enrollment 토픽&lt;/font&gt;" style="rounded=0;whiteSpace=wrap;html=1;fillColor=#fff2cc;strokeColor=#d6b656;" parent="1" vertex="1">
          <mxGeometry x="195" y="200" width="140" height="30" as="geometry" />
        </mxCell>
        <mxCell id="njsngqaN4NBIr93hJb6f-6" style="edgeStyle=orthogonalEdgeStyle;rounded=0;orthogonalLoop=1;jettySize=auto;html=1;exitX=0.5;exitY=1;exitDx=0;exitDy=0;strokeWidth=3;fontSize=18;entryX=0.5;entryY=0;entryDx=0;entryDy=0;" parent="1" source="njsngqaN4NBIr93hJb6f-2" target="n7t8_uaDeEoZKUTKyP9Q-1" edge="1">
          <mxGeometry relative="1" as="geometry" />
        </mxCell>
        <mxCell id="njsngqaN4NBIr93hJb6f-2" value="[소스 프로세서]&lt;br&gt;stream()" style="rounded=1;whiteSpace=wrap;html=1;fontSize=18;fillColor=#dae8fc;strokeColor=#6c8ebf;" parent="1" vertex="1">
          <mxGeometry x="205" y="280" width="120" height="50" as="geometry" />
        </mxCell>
        <mxCell id="njsngqaN4NBIr93hJb6f-7" style="edgeStyle=orthogonalEdgeStyle;rounded=0;orthogonalLoop=1;jettySize=auto;html=1;exitX=0.5;exitY=1;exitDx=0;exitDy=0;entryX=0.5;entryY=0;entryDx=0;entryDy=0;strokeWidth=3;fontSize=18;" parent="1" source="njsngqaN4NBIr93hJb6f-3" target="njsngqaN4NBIr93hJb6f-4" edge="1">
          <mxGeometry relative="1" as="geometry" />
        </mxCell>
        <mxCell id="njsngqaN4NBIr93hJb6f-3" value="[싱크 프로세서]&lt;br&gt;to()" style="rounded=1;whiteSpace=wrap;html=1;fontSize=18;fillColor=#dae8fc;strokeColor=#6c8ebf;" parent="1" vertex="1">
          <mxGeometry x="287.5" y="470" width="120" height="50" as="geometry" />
        </mxCell>
        <mxCell id="njsngqaN4NBIr93hJb6f-4" value="&lt;font style=&quot;font-size: 18px;&quot;&gt;enroll_lecture 토픽&lt;/font&gt;" style="rounded=0;whiteSpace=wrap;html=1;fillColor=#fff2cc;strokeColor=#d6b656;" parent="1" vertex="1">
          <mxGeometry x="267.5" y="560" width="160" height="30" as="geometry" />
        </mxCell>
        <mxCell id="n7t8_uaDeEoZKUTKyP9Q-2" style="edgeStyle=orthogonalEdgeStyle;rounded=0;orthogonalLoop=1;jettySize=auto;html=1;exitX=0.5;exitY=1;exitDx=0;exitDy=0;entryX=0.5;entryY=0;entryDx=0;entryDy=0;strokeWidth=3;" parent="1" source="n7t8_uaDeEoZKUTKyP9Q-1" target="njsngqaN4NBIr93hJb6f-3" edge="1">
          <mxGeometry relative="1" as="geometry" />
        </mxCell>
        <mxCell id="n7t8_uaDeEoZKUTKyP9Q-1" value="[스트림 프로세서]&lt;br&gt;join()" style="rounded=1;whiteSpace=wrap;html=1;fontSize=18;fillColor=#dae8fc;strokeColor=#6c8ebf;" parent="1" vertex="1">
          <mxGeometry x="270" y="380" width="155" height="50" as="geometry" />
        </mxCell>
        <mxCell id="kBO8JYwr2JAYxz3RJ3LD-3" style="edgeStyle=orthogonalEdgeStyle;rounded=0;orthogonalLoop=1;jettySize=auto;html=1;exitX=0.5;exitY=1;exitDx=0;exitDy=0;entryX=0.5;entryY=0;entryDx=0;entryDy=0;strokeWidth=3;" edge="1" parent="1" source="kBO8JYwr2JAYxz3RJ3LD-1" target="kBO8JYwr2JAYxz3RJ3LD-2">
          <mxGeometry relative="1" as="geometry" />
        </mxCell>
        <mxCell id="kBO8JYwr2JAYxz3RJ3LD-1" value="&lt;font style=&quot;font-size: 18px;&quot;&gt;lecture 토픽&lt;/font&gt;" style="rounded=0;whiteSpace=wrap;html=1;fillColor=#fff2cc;strokeColor=#d6b656;" vertex="1" parent="1">
          <mxGeometry x="370" y="200" width="130" height="30" as="geometry" />
        </mxCell>
        <mxCell id="kBO8JYwr2JAYxz3RJ3LD-4" style="edgeStyle=orthogonalEdgeStyle;rounded=0;orthogonalLoop=1;jettySize=auto;html=1;exitX=0.5;exitY=1;exitDx=0;exitDy=0;entryX=0.5;entryY=0;entryDx=0;entryDy=0;strokeWidth=3;" edge="1" parent="1" source="kBO8JYwr2JAYxz3RJ3LD-2" target="n7t8_uaDeEoZKUTKyP9Q-1">
          <mxGeometry relative="1" as="geometry" />
        </mxCell>
        <mxCell id="kBO8JYwr2JAYxz3RJ3LD-2" value="[소스 프로세서]&lt;br&gt;table()" style="rounded=1;whiteSpace=wrap;html=1;fontSize=18;fillColor=#dae8fc;strokeColor=#6c8ebf;" vertex="1" parent="1">
          <mxGeometry x="375" y="280" width="120" height="50" as="geometry" />
        </mxCell>
      </root>
    </mxGraphModel>
  </diagram>
</mxfile>
